<?xml version="1.0" standalone="no"?><!DOCTYPE svg PUBLIC "-//W3C//DTD SVG 1.1//EN" "http://www.w3.org/Graphics/SVG/1.1/DTD/svg11.dtd"><svg height="1200" node-id="1" sillyvg="true" template-height="1200" template-width="1200" version="1.1" viewBox="0 0 1200 1200" width="1200" xmlns="http://www.w3.org/2000/svg" xmlns:xlink="http://www.w3.org/1999/xlink"><defs node-id="63"><linearGradient gradientUnits="objectBoundingBox" id="未命名的渐变_7" node-id="5" spreadMethod="pad" x1="604.56" x2="604.56" y1="1061.71" y2="678.62"><stop offset="0.25" stop-color="#ffffff"></stop><stop offset="1" stop-color="#fcf2de"></stop></linearGradient><linearGradient gradientUnits="objectBoundingBox" id="未命名的渐变_57" node-id="8" spreadMethod="pad" x1="1052.51" x2="1052.51" y1="686.2" y2="845.34"><stop offset="0" stop-color="#ffffff"></stop><stop offset="0.83" stop-color="#e8d3af"></stop></linearGradient><linearGradient gradientUnits="objectBoundingBox" id="未命名的渐变_57-2" node-id="11" spreadMethod="pad" x1="171.07" x2="171.07" y1="726.62" y2="837.82"><stop offset="0" stop-color="#ffffff"></stop><stop offset="0.83" stop-color="#e8d3af"></stop></linearGradient><linearGradient gradientUnits="objectBoundingBox" id="未命名的渐变_11" node-id="12" spreadMethod="pad" x1="156.89" x2="195.32" y1="243.13" y2="309.69"><stop offset="0.02" stop-color="#fdf2dd"></stop><stop offset="1" stop-color="#ddd0b6"></stop></linearGradient><linearGradient gradientUnits="objectBoundingBox" id="未命名的渐变_11-2" node-id="15" spreadMethod="pad" x1="1044.01" x2="1095.49" y1="408.24" y2="497.4"><stop offset="0.02" stop-color="#fdf2dd"></stop><stop offset="1" stop-color="#ddd0b6"></stop></linearGradient><linearGradient gradientUnits="objectBoundingBox" id="未命名的渐变_11-3" node-id="16" spreadMethod="pad" x1="1081.49" x2="1114.91" y1="567.04" y2="624.93"><stop offset="0.02" stop-color="#fdf2dd"></stop><stop offset="1" stop-color="#ddd0b6"></stop></linearGradient><linearGradient gradientUnits="objectBoundingBox" id="未命名的渐变_11-4" node-id="17" spreadMethod="pad" x1="120.82" x2="154.24" y1="615.68" y2="673.57"><stop offset="0.02" stop-color="#fdf2dd"></stop><stop offset="1" stop-color="#ddd0b6"></stop></linearGradient><linearGradient gradientUnits="objectBoundingBox" id="未命名的渐变_11-5" node-id="18" spreadMethod="pad" x1="670.45" x2="691.01" y1="140.91" y2="176.52"><stop offset="0.02" stop-color="#fdf2dd"></stop><stop offset="1" stop-color="#ddd0b6"></stop></linearGradient><linearGradient gradientUnits="objectBoundingBox" id="未命名的渐变_7-2" node-id="19" spreadMethod="pad" x1="336.31" x2="365.73" y1="159.97" y2="210.92"><stop offset="0.25" stop-color="#ffffff"></stop><stop offset="1" stop-color="#fcf2de"></stop></linearGradient><linearGradient gradientUnits="objectBoundingBox" id="未命名的渐变_7-3" node-id="20" spreadMethod="pad" x1="840.78" x2="870.19" y1="186.39" y2="237.34"><stop offset="0.25" stop-color="#ffffff"></stop><stop offset="1" stop-color="#fcf2de"></stop></linearGradient><linearGradient gradientUnits="objectBoundingBox" id="未命名的渐变_58" node-id="21" spreadMethod="pad" x1="927.94" x2="927.94" y1="968.23" y2="902.97"><stop offset="0.24" stop-color="#ffffff"></stop><stop offset="0.98" stop-color="#e5c798"></stop></linearGradient><linearGradient gradientUnits="objectBoundingBox" id="未命名的渐变_58-2" node-id="24" spreadMethod="pad" x1="171.07" x2="171.07" y1="954.26" y2="889"><stop offset="0.24" stop-color="#ffffff"></stop><stop offset="0.98" stop-color="#e5c798"></stop></linearGradient><linearGradient gradientUnits="objectBoundingBox" id="未命名的渐变_64" node-id="25" spreadMethod="pad" x1="297.69" x2="297.69" y1="880.29" y2="708.92"><stop offset="0.24" stop-color="#fffcf6"></stop><stop offset="0.98" stop-color="#dac49b"></stop></linearGradient><linearGradient gradientUnits="objectBoundingBox" id="未命名的渐变_64-2" node-id="28" spreadMethod="pad" x1="546.27" x2="546.27" y1="880.29" y2="708.92"><stop offset="0.24" stop-color="#fffcf6"></stop><stop offset="0.98" stop-color="#dac49b"></stop></linearGradient><linearGradient gradientUnits="objectBoundingBox" id="未命名的渐变_64-3" node-id="29" spreadMethod="pad" x1="934.6" x2="934.6" y1="880.29" y2="708.92"><stop offset="0.24" stop-color="#fffcf6"></stop><stop offset="0.98" stop-color="#dac49b"></stop></linearGradient><linearGradient gradientUnits="objectBoundingBox" id="未命名的渐变_21" node-id="30" spreadMethod="pad" x1="123.56" x2="443.66" y1="516.16" y2="516.16"><stop offset="0.02" stop-color="#f1e1c5"></stop><stop offset="1" stop-color="#ccb48d"></stop></linearGradient><linearGradient gradientUnits="objectBoundingBox" id="未命名的渐变_21-2" node-id="33" spreadMethod="pad" x1="456.37" x2="766.56" y1="516.51" y2="516.51"><stop offset="0.02" stop-color="#f1e1c5"></stop><stop offset="1" stop-color="#ccb48d"></stop></linearGradient><linearGradient gradientUnits="objectBoundingBox" id="未命名的渐变_21-3" node-id="34" spreadMethod="pad" x1="784.52" x2="1084.69" y1="516.16" y2="516.16"><stop offset="0.02" stop-color="#f1e1c5"></stop><stop offset="1" stop-color="#ccb48d"></stop></linearGradient><linearGradient gradientUnits="objectBoundingBox" id="未命名的渐变_11-6" node-id="35" spreadMethod="pad" x1="123.56" x2="417.9" y1="522.83" y2="522.83"><stop offset="0.02" stop-color="#fdf2dd"></stop><stop offset="1" stop-color="#ddd0b6"></stop></linearGradient><linearGradient gradientUnits="objectBoundingBox" id="未命名的渐变_11-7" node-id="36" spreadMethod="pad" x1="446.83" x2="744.33" y1="523.16" y2="523.16"><stop offset="0.02" stop-color="#fdf2dd"></stop><stop offset="1" stop-color="#ddd0b6"></stop></linearGradient><linearGradient gradientUnits="objectBoundingBox" id="未命名的渐变_11-8" node-id="37" spreadMethod="pad" x1="770.1" x2="1064.44" y1="522.83" y2="522.83"><stop offset="0.02" stop-color="#fdf2dd"></stop><stop offset="1" stop-color="#ddd0b6"></stop></linearGradient></defs><path d="M 1107.36 870.17 C 1107.36 920.97 1054.39 969.69 960.09 1005.61 C 865.80 1041.53 737.91 1061.71 604.56 1061.71 C 471.21 1061.71 343.32 1041.53 249.03 1005.61 C 154.73 969.69 101.76 920.97 101.76 870.17 C 101.76 819.37 154.73 770.65 249.03 734.73 C 343.32 698.81 471.21 678.63 604.56 678.63 C 737.91 678.63 865.80 698.81 960.09 734.73 C 1054.39 770.65 1107.36 819.37 1107.36 870.17 Z" fill="url(#未命名的渐变_7)" fill-rule="nonzero" node-id="193" stroke="none" target-height="383.07996" target-width="1005.6" target-x="101.76001" target-y="678.63"></path><path d="M 1097.50 786.00 L 1062.50 693.06 C 1060.94 688.91 1056.97 686.15 1052.53 686.15 C 1048.09 686.15 1044.12 688.91 1042.56 693.06 L 1007.56 786.00 C 1006.32 789.28 1006.78 792.95 1008.77 795.83 C 1010.77 798.71 1014.06 800.42 1017.56 800.41 L 1046.45 800.41 L 1046.45 842.80 C 1046.45 846.19 1058.71 846.19 1058.71 842.80 L 1058.71 800.45 L 1087.61 800.45 C 1091.10 800.43 1094.37 798.70 1096.34 795.82 C 1098.31 792.93 1098.75 789.26 1097.50 786.00 Z" fill="url(#未命名的渐变_57)" fill-rule="nonzero" node-id="195" stroke="none" target-height="160.03546" target-width="92.42346" target-x="1006.32324" target-y="686.15454"></path><path d="M 202.51 796.38 L 178.00 731.44 C 176.91 728.54 174.13 726.62 171.03 726.62 C 167.94 726.62 165.16 728.54 164.07 731.44 L 139.59 796.38 C 138.73 798.67 139.05 801.24 140.45 803.25 C 141.84 805.26 144.14 806.46 146.59 806.45 L 166.78 806.45 L 166.78 836.05 C 166.78 838.41 175.35 838.41 175.35 836.05 L 175.35 806.45 L 195.54 806.45 C 197.99 806.45 200.28 805.25 201.67 803.24 C 203.06 801.23 203.37 798.67 202.51 796.38 Z" fill="url(#未命名的渐变_57-2)" fill-rule="nonzero" node-id="197" stroke="none" target-height="111.79413" target-width="64.645645" target-x="138.72879" target-y="726.61584"></path><g node-id="253"><path d="M 176.10 232.03 L 183.88 267.46 L 214.68 276.41 L 183.88 285.35 L 176.10 320.78 L 168.33 285.35 L 137.53 276.41 L 168.33 267.46 L 176.10 232.03 Z" fill="url(#未命名的渐变_11)" fill-opacity="0.9" fill-rule="nonzero" group-id="1" node-id="201" stroke="none" target-height="88.75" target-width="77.15001" target-x="137.53" target-y="232.03"></path></g><path d="M 1069.75 393.38 L 1080.16 440.84 L 1121.42 452.82 L 1080.16 464.81 L 1069.75 512.27 L 1059.33 464.81 L 1018.08 452.82 L 1059.33 440.84 L 1069.75 393.38 Z" fill="url(#未命名的渐变_11-2)" fill-rule="nonzero" node-id="204" stroke="none" target-height="118.890015" target-width="103.339966" target-x="1018.0801" target-y="393.38"></path><g node-id="254"><path d="M 1098.20 557.40 L 1104.96 588.21 L 1131.74 595.99 L 1104.96 603.77 L 1098.20 634.58 L 1091.44 603.77 L 1064.65 595.99 L 1091.44 588.21 L 1098.20 557.40 Z" fill="url(#未命名的渐变_11-3)" fill-opacity="0.7" fill-rule="nonzero" group-id="2" node-id="208" stroke="none" target-height="77.17999" target-width="67.089966" target-x="1064.65" target-y="557.4"></path></g><g node-id="255"><path d="M 137.53 606.03 L 144.29 636.84 L 171.07 644.62 L 144.29 652.40 L 137.53 683.21 L 130.77 652.40 L 103.98 644.62 L 130.77 636.84 L 137.53 606.03 Z" fill="url(#未命名的渐变_11-4)" fill-opacity="0.7" fill-rule="nonzero" group-id="3" node-id="213" stroke="none" target-height="77.17999" target-width="67.090004" target-x="103.98" target-y="606.03"></path></g><g node-id="256"><path d="M 680.73 134.97 L 684.89 153.93 L 701.37 158.72 L 684.89 163.50 L 680.73 182.46 L 676.57 163.50 L 660.09 158.72 L 676.57 153.93 L 680.73 134.97 Z" fill="url(#未命名的渐变_11-5)" fill-opacity="0.6" fill-rule="nonzero" group-id="4" node-id="218" stroke="none" target-height="47.490005" target-width="41.279907" target-x="660.09" target-y="134.97"></path></g><path d="M 380.43 185.45 C 380.43 201.69 367.26 214.86 351.02 214.86 C 334.78 214.86 321.61 201.69 321.61 185.45 C 321.61 169.21 334.78 156.04 351.02 156.04 C 367.26 156.04 380.43 169.21 380.43 185.45 Z" fill="url(#未命名的渐变_7-2)" fill-rule="nonzero" node-id="221" stroke="none" target-height="58.820007" target-width="58.820038" target-x="321.61" target-y="156.04"></path><path d="M 884.89 211.87 C 884.89 228.11 871.72 241.28 855.48 241.28 C 839.24 241.28 826.07 228.11 826.07 211.87 C 826.07 195.63 839.24 182.46 855.48 182.46 C 871.72 182.46 884.89 195.63 884.89 211.87 Z" fill="url(#未命名的渐变_7-3)" fill-rule="nonzero" node-id="223" stroke="none" target-height="58.820007" target-width="58.820007" target-x="826.06995" target-y="182.45999"></path><g node-id="257"><path d="M 998.76 935.60 C 998.76 953.62 967.05 968.23 927.94 968.23 C 888.83 968.23 857.12 953.62 857.12 935.60 C 857.12 917.58 888.83 902.97 927.94 902.97 C 967.05 902.97 998.76 917.58 998.76 935.60 Z" fill="url(#未命名的渐变_58)" fill-opacity="0.5" fill-rule="nonzero" group-id="5" node-id="227" stroke="none" target-height="65.26001" target-width="141.63995" target-x="857.12006" target-y="902.97"></path></g><g node-id="258"><path d="M 241.89 921.63 C 241.89 939.65 210.18 954.26 171.07 954.26 C 131.96 954.26 100.25 939.65 100.25 921.63 C 100.25 903.61 131.96 889.00 171.07 889.00 C 210.18 889.00 241.89 903.61 241.89 921.63 Z" fill="url(#未命名的渐变_58-2)" fill-opacity="0.5" fill-rule="nonzero" group-id="6" node-id="232" stroke="none" target-height="65.26001" target-width="141.64001" target-x="100.25" target-y="889"></path></g><path d="M 373.95 708.92 L 73.03 880.29 L 522.35 880.29 L 373.95 708.92 Z" fill="url(#未命名的渐变_64)" fill-rule="nonzero" node-id="235" stroke="none" target-height="171.37006" target-width="449.31998" target-x="73.03" target-y="708.9199"></path><path d="M 622.53 708.92 L 321.61 880.29 L 770.93 880.29 L 622.53 708.92 Z" fill="url(#未命名的渐变_64-2)" fill-rule="nonzero" node-id="237" stroke="none" target-height="171.37006" target-width="449.32007" target-x="321.61" target-y="708.9199"></path><path d="M 1010.87 708.92 L 709.94 880.29 L 1159.26 880.29 L 1010.87 708.92 Z" fill="url(#未命名的渐变_64-3)" fill-rule="nonzero" node-id="239" stroke="none" target-height="171.37006" target-width="449.32" target-x="709.94" target-y="708.9199"></path><path d="M 123.56 666.00 L 123.56 586.00 L 302.00 286.43 L 400.39 286.43 L 400.39 584.70 L 443.66 584.70 L 443.66 666.00 L 400.39 666.00 L 400.39 745.90 L 330.57 745.90 L 330.57 666.00 Z M 201.74 584.71 L 330.57 584.71 L 330.57 388.38 Z" fill="url(#未命名的渐变_21)" fill-rule="nonzero" node-id="241" stroke="none" target-height="459.47003" target-width="320.1" target-x="123.56" target-y="286.43"></path><path d="M 610.05 284.37 C 669.13 284.37 710.93 307.33 735.44 353.25 C 756.19 392.29 766.57 446.71 766.56 516.51 C 766.56 599.63 752.89 660.25 725.56 698.36 C 700.73 731.89 665.07 748.65 618.56 748.65 C 556.34 748.65 512.03 723.62 485.63 673.57 C 466.14 635.92 456.39 583.10 456.40 515.13 C 456.40 436.60 468.89 378.63 493.88 341.20 C 518.87 303.77 557.59 284.83 610.05 284.37 Z M 608.63 360.83 C 594.66 360.77 581.10 365.51 570.21 374.26 C 558.74 383.22 550.02 395.73 544.05 411.80 C 539.96 421.91 536.59 436.50 533.92 455.55 C 531.30 473.92 529.96 492.45 529.92 511.00 C 529.92 531.74 531.34 552.45 534.16 573.00 C 536.99 593.67 540.45 609.74 544.53 621.22 C 556.79 654.75 580.36 671.51 615.24 671.51 C 634.41 671.51 649.18 665.77 659.56 654.29 C 674.01 638.68 683.44 615.49 687.84 584.71 C 691.30 560.76 693.02 536.58 693.00 512.38 C 693.12 490.32 691.22 468.30 687.34 446.59 C 683.57 426.16 678.54 410.21 672.25 398.72 C 666.12 387.40 656.99 377.99 645.86 371.51 C 634.55 364.86 621.74 361.19 608.63 360.83 Z" fill="url(#未命名的渐变_21-2)" fill-rule="nonzero" node-id="243" stroke="none" target-height="464.28003" target-width="310.1733" target-x="456.39334" target-y="284.37"></path><path d="M 784.52 666.00 L 784.52 568.86 L 947.79 286.43 L 1046.58 286.43 L 1046.58 584.70 L 1084.69 584.70 L 1083.49 668.62 L 1045.38 668.62 L 1046.58 745.89 L 980.48 745.89 L 980.48 666.00 Z M 858.52 584.71 L 980.52 584.71 L 980.52 388.38 Z" fill="url(#未命名的渐变_21-3)" fill-rule="nonzero" node-id="245" stroke="none" target-height="459.46002" target-width="300.16998" target-x="784.51996" target-y="286.43"></path><path d="M 123.56 668.36 L 123.56 574.00 L 293.56 299.67 L 378.11 299.67 L 378.11 589.40 L 417.90 589.40 L 417.90 668.40 L 378.11 668.40 L 378.11 746.00 L 313.91 746.00 L 313.91 668.36 Z M 195.45 589.36 L 313.91 589.36 L 313.91 398.71 Z" fill="url(#未命名的渐变_11-6)" fill-rule="nonzero" node-id="247" stroke="none" target-height="446.33" target-width="294.34003" target-x="123.56" target-y="299.67"></path><path d="M 594.22 297.67 C 650.89 297.67 690.98 319.97 714.49 364.58 C 734.38 402.50 744.33 455.36 744.33 523.16 C 744.33 603.90 731.22 662.78 705.00 699.80 C 681.18 732.37 646.97 748.66 602.36 748.65 C 542.68 748.65 500.18 724.34 474.86 675.72 C 456.19 639.15 446.86 587.85 446.86 521.82 C 446.86 445.55 458.84 389.21 482.80 352.82 C 506.76 316.43 543.90 298.04 594.22 297.67 Z M 592.87 371.94 C 579.44 371.89 566.40 376.50 556.00 385.00 C 544.99 393.67 536.63 405.82 530.91 421.47 C 526.99 431.28 523.75 445.44 521.19 463.96 C 518.67 481.80 517.38 499.80 517.34 517.82 C 517.36 537.95 518.72 558.05 521.43 578.00 C 524.14 598.07 527.48 613.69 531.43 624.84 C 543.14 657.42 565.73 673.71 599.20 673.71 C 617.58 673.71 631.75 668.13 641.70 656.98 C 655.56 641.82 664.60 619.29 668.83 589.40 C 672.16 566.13 673.83 542.66 673.83 519.15 C 673.94 497.73 672.13 476.34 668.40 455.25 C 664.79 435.40 659.97 419.89 653.94 408.74 C 648.08 397.78 639.32 388.64 628.62 382.32 C 617.79 375.85 605.48 372.28 592.87 371.94 Z" fill="url(#未命名的渐变_11-7)" fill-rule="nonzero" node-id="249" stroke="none" target-height="450.98666" target-width="297.47" target-x="446.86002" target-y="297.67"></path><path d="M 770.10 668.36 L 770.10 574.00 L 940.10 299.67 L 1024.65 299.67 L 1024.65 589.40 L 1064.44 589.40 L 1064.44 668.40 L 1024.65 668.40 L 1024.65 746.00 L 960.45 746.00 L 960.45 668.36 Z M 841.99 589.36 L 960.45 589.36 L 960.45 398.71 Z" fill="url(#未命名的渐变_11-8)" fill-rule="nonzero" node-id="251" stroke="none" target-height="446.33" target-width="294.34003" target-x="770.0999" target-y="299.67"></path></svg>